<?xml version="1.0" encoding="UTF-8"?>
<svg xmlns="http://www.w3.org/2000/svg" xmlns:xlink="http://www.w3.org/1999/xlink" width="55.974" height="43.67" viewBox="0 0 55.974 43.67">
<defs>
<clipPath id="clip-0">
<path clip-rule="nonzero" d="M 12 1 L 54 1 L 54 42 L 12 42 Z M 12 1 "/>
</clipPath>
<clipPath id="clip-1">
<path clip-rule="nonzero" d="M 12.3125 21.835938 L 53.980469 1.992188 L 53.980469 41.675781 Z M 12.3125 21.835938 "/>
</clipPath>
</defs>
<path fill="none" stroke-width="0.797" stroke-linecap="butt" stroke-linejoin="bevel" stroke="rgb(0%, 0%, 0%)" stroke-opacity="1" stroke-miterlimit="10" d="M 0.0005 -0.0018125 L -9.921375 19.841938 L 9.922375 19.841938 Z M 0.0005 -0.0018125 " transform="matrix(1, 0, 0, -1, 12.312, 31.756)"/>
<path fill="none" stroke-width="0.3985" stroke-linecap="butt" stroke-linejoin="miter" stroke="rgb(0%, 0%, 0%)" stroke-opacity="1" stroke-miterlimit="10" d="M 0.0005 -0.0018125 L 0.0005 19.841938 " transform="matrix(1, 0, 0, -1, 12.312, 31.756)"/>
<g clip-path="url(#clip-0)">
<g clip-path="url(#clip-1)">
<path fill="none" stroke-width="0.3985" stroke-linecap="butt" stroke-linejoin="miter" stroke="rgb(0%, 0%, 0%)" stroke-opacity="1" stroke-miterlimit="10" d="M 39.684094 9.920063 C 39.684094 31.838031 21.918469 49.607563 0.0005 49.607563 C -21.917469 49.607563 -39.687 31.838031 -39.687 9.920063 C -39.687 -11.997906 -21.917469 -29.763531 0.0005 -29.763531 C 21.918469 -29.763531 39.684094 -11.997906 39.684094 9.920063 Z M 34.723156 9.920063 C 34.723156 29.09975 19.176281 44.646625 0.0005 44.646625 C -19.179188 44.646625 -34.726062 29.09975 -34.726062 9.920063 C -34.726062 -9.255719 -19.179188 -24.802594 0.0005 -24.802594 C 19.176281 -24.802594 34.723156 -9.255719 34.723156 9.920063 Z M 29.762219 9.920063 C 29.762219 26.361469 16.438 39.685688 0.0005 39.685688 C -16.437 39.685688 -29.765125 26.361469 -29.765125 9.920063 C -29.765125 -6.517437 -16.437 -19.841656 0.0005 -19.841656 C 16.438 -19.841656 29.762219 -6.517437 29.762219 9.920063 Z M 24.805187 9.920063 C 24.805187 23.619281 13.699719 34.72475 0.0005 34.72475 C -13.698719 34.72475 -24.804188 23.619281 -24.804188 9.920063 C -24.804188 -3.779156 -13.698719 -14.880719 0.0005 -14.880719 C 13.699719 -14.880719 24.805187 -3.779156 24.805187 9.920063 Z M 19.84425 9.920063 C 19.84425 20.881 10.957531 29.763813 0.0005 29.763813 C -10.960438 29.763813 -19.84325 20.881 -19.84325 9.920063 C -19.84325 -1.036969 -10.960438 -9.919781 0.0005 -9.919781 C 10.957531 -9.919781 19.84425 -1.036969 19.84425 9.920063 Z M 14.883312 9.920063 C 14.883312 18.138813 8.21925 24.802875 0.0005 24.802875 C -8.21825 24.802875 -14.882313 18.138813 -14.882313 9.920063 C -14.882313 1.701313 -8.21825 -4.958844 0.0005 -4.958844 C 8.21925 -4.958844 14.883312 1.701313 14.883312 9.920063 Z M 14.883312 9.920063 " transform="matrix(1, 0, 0, -1, 12.312, 31.756)"/>
</g>
</g>
</svg>
